<svg width="340" height="82" viewBox="0 0 340 82" fill="none" xmlns="http://www.w3.org/2000/svg">
<path d="M309.073 11.1738H317.251L339.958 70.0728H328.909L323.515 54.6738H302.287L296.719 70.0728H286.453L309.073 11.1738ZM320.818 47.0178C318.962 41.7978 317.367 37.0708 316.033 32.8368C314.699 28.5448 313.684 25.1808 312.988 22.7448C312.176 25.3548 311.103 28.7768 309.769 33.0108C308.435 37.2448 306.869 41.9138 305.071 47.0178H320.818Z" fill="#232F3E"/>
<path d="M270.429 11.174H280.782V70.16H272.169L252.333 39.188C251.231 37.506 250.013 35.621 248.679 33.533C247.403 31.387 246.185 29.415 245.025 27.617C245.199 29.473 245.344 31.416 245.46 33.446C245.634 35.476 245.721 37.419 245.721 39.275L245.982 70.073H235.629V11H243.72L264.165 41.624C265.325 43.306 266.485 45.104 267.645 47.018C268.863 48.874 270.052 50.672 271.212 52.412C271.096 50.556 270.98 48.7 270.864 46.844C270.748 44.93 270.69 43.306 270.69 41.972L270.429 11.174Z" fill="#232F3E"/>
<path d="M213.115 11.1738H223.468V70.0728H213.115V11.1738Z" fill="#EF323A"/>
<path d="M176.534 11.1738H184.712L207.419 70.0728H196.37L190.976 54.6738H169.748L164.18 70.0728H153.914L176.534 11.1738ZM188.279 47.0178C186.423 41.7978 184.828 37.0708 183.494 32.8368C182.16 28.5448 181.145 25.1808 180.449 22.7448C179.637 25.3548 178.564 28.7768 177.23 33.0108C175.896 37.2448 174.33 41.9138 172.532 47.0178H188.279Z" fill="#EF323A"/>
<path d="M137.89 11.174H148.243V70.16H139.63L119.794 39.188C118.692 37.506 117.474 35.621 116.14 33.533C114.864 31.387 113.646 29.415 112.486 27.617C112.66 29.473 112.805 31.416 112.921 33.446C113.095 35.476 113.182 37.419 113.182 39.275L113.443 70.073H103.09V11H111.181L131.626 41.624C132.786 43.306 133.946 45.104 135.106 47.018C136.324 48.874 137.513 50.672 138.673 52.412C138.557 50.556 138.441 48.7 138.325 46.844C138.209 44.93 138.151 43.306 138.151 41.972L137.89 11.174Z" fill="#232F3E"/>
<circle cx="25" cy="25" r="25" fill="#103774" fill-opacity="0.9"/>
<circle cx="63" cy="25" r="25" fill="#EF323A" fill-opacity="0.9"/>
<ellipse cx="43.5" cy="57" rx="24.5" ry="25" fill="#D9D9D9" fill-opacity="0.9"/>
</svg>
